<svg width="12" height="12" viewBox="0 0 12 12" fill="none" xmlns="http://www.w3.org/2000/svg">
<path d="M6.2066 8.94042L8.57098 10.4382C8.87323 10.6294 9.24823 10.3448 9.1586 9.99192L8.47572 7.30504C8.45644 7.2302 8.45866 7.15143 8.48214 7.0778C8.50563 7.00416 8.54942 6.93865 8.60847 6.88879L10.7287 5.12442C11.007 4.89267 10.8637 4.43029 10.5056 4.40704L7.73697 4.22704C7.66243 4.22175 7.59093 4.1954 7.53078 4.15106C7.47063 4.10671 7.42431 4.04619 7.39722 3.97654L6.36448 1.37629C6.33635 1.30239 6.28644 1.23879 6.22134 1.19391C6.15624 1.14903 6.07904 1.125 5.99998 1.125C5.92091 1.125 5.84371 1.14903 5.77861 1.19391C5.71351 1.23879 5.6636 1.30239 5.63548 1.37629L4.60273 3.97654C4.57569 4.04626 4.5294 4.10686 4.46925 4.15127C4.4091 4.19569 4.33756 4.2221 4.26298 4.22742L1.49435 4.40742C1.1366 4.43029 0.992601 4.89267 1.27123 5.12442L3.39148 6.88917C3.45047 6.93899 3.49421 7.00444 3.51769 7.078C3.54118 7.15156 3.54344 7.23025 3.52423 7.30504L2.89123 9.79692C2.7836 10.2203 3.23398 10.5619 3.59623 10.332L5.79373 8.94042C5.85549 8.90115 5.92716 8.8803 6.00035 8.8803C6.07354 8.8803 6.14521 8.90115 6.20697 8.94042H6.2066Z" fill="#FF8A00"/>
</svg>
